PathFileType	4	(X/Y/Z)	S:\OneDrive - The University of Tokyo\ìåëÂéˆã∆\ÉoÉCÉÅÉJ\ë™íË\hirabayashi_2\Trimmed\Trimmed_BarL20kg1.trc
DataRate	CameraRate	NumFrames	NumMarkers	Units	OrigDataRate	OrigDataStartFrame	OrigNumFrames
200.00	200.00	       24	12	mm	200.00	192	       306
Frame#	Time	BarR0			BarR50			BarR100			BarR130			BarR180			BarR230			BarL0			BarL50			BarL100			BarL130			BarL180			BarL230			
		X1	Y1	Z1	X2	Y2	Z2	X3	Y3	Z3	X4	Y4	Z4	X5	Y5	Z5	X6	Y6	Z6	X7	Y7	Z7	X8	Y8	Z8	X9	Y9	Z9	X10	Y10	Z10	X11	Y11	Z11	X12	Y12	Z12	

192	0.955	-575.95300	2755.40845	1664.47449	-604.79749	2306.24390	1662.40674	-637.26343	1851.86230	1662.06531	-660.68903	1349.37952	1662.46863	-690.05164	902.67102	1662.65784	-713.74255	454.70316	1664.10608	-1113.55945	2807.73022	1664.60583	-1140.80872	2356.11816	1663.20264	-1171.41382	1905.90149	1660.97839	-1198.84497	1404.17151	1661.36792	-1227.46301	952.69476	1663.57458	-1244.68091	506.76260	1667.52759	
193	0.960	-575.95410	2755.43140	1664.47546	-604.83295	2306.24780	1662.42712	-637.26569	1851.85901	1662.06799	-660.69623	1349.37891	1662.44006	-690.04651	902.68756	1662.65991	-713.73169	454.69424	1664.10950	-1113.56946	2807.70386	1664.59534	-1140.78235	2356.12769	1663.19971	-1171.41748	1905.92297	1660.96924	-1198.81799	1404.18555	1661.36646	-1227.46069	952.67413	1663.55420	-1244.67297	506.75729	1667.50830	
194	0.965	-575.96075	2755.42627	1664.46948	-604.80090	2306.23584	1662.41516	-637.27802	1851.90857	1662.06311	-660.68658	1349.38074	1662.47400	-690.04938	902.70374	1662.66846	-713.73877	454.69772	1664.09399	-1113.54297	2807.75781	1664.60559	-1140.82166	2356.11279	1663.20593	-1171.44092	1905.89209	1660.98645	-1198.81177	1404.19373	1661.37231	-1227.46838	952.68378	1663.54565	-1244.67944	506.74554	1667.52039	
195	0.970	-575.95313	2755.40430	1664.47229	-604.81897	2306.23096	1662.40283	-637.25354	1851.89258	1662.07751	-660.68933	1349.38916	1662.45898	-690.03900	902.70221	1662.66113	-713.72778	454.68683	1664.10315	-1113.53882	2807.72900	1664.61365	-1140.80273	2356.10571	1663.20618	-1171.44873	1905.88879	1660.98022	-1198.81299	1404.17737	1661.37952	-1227.46021	952.71924	1663.56165	-1244.68530	506.74649	1667.52637	
196	0.975	-575.95544	2755.41675	1664.47217	-604.80988	2306.24805	1662.40332	-637.27985	1851.86450	1662.06970	-660.70605	1349.37207	1662.45081	-690.04669	902.68213	1662.66687	-713.71997	454.68478	1664.11108	-1113.53027	2807.71533	1664.60620	-1140.77625	2356.11597	1663.20569	-1171.43823	1905.90942	1660.98401	-1198.81982	1404.14343	1661.37988	-1227.46814	952.68420	1663.55383	-1244.67322	506.73889	1667.53564	
197	0.980	-575.96118	2755.43018	1664.46692	-604.81824	2306.26245	1662.40295	-637.25171	1851.89404	1662.08362	-660.68115	1349.38342	1662.45886	-690.05225	902.67145	1662.66211	-713.74945	454.70560	1664.11072	-1113.57019	2807.74268	1664.61206	-1140.78748	2356.11938	1663.20068	-1171.43408	1905.89746	1660.96130	-1198.82202	1404.15906	1661.37244	-1227.45313	952.70502	1663.56238	-1244.68518	506.75748	1667.53320	
198	0.985	-575.95825	2755.41260	1664.48120	-604.82593	2306.23096	1662.40576	-637.27942	1851.86621	1662.05762	-660.71625	1349.39075	1662.46460	-690.07355	902.69794	1662.64258	-713.72699	454.69406	1664.11670	-1113.57202	2807.72192	1664.61157	-1140.80103	2356.11011	1663.20020	-1171.42737	1905.89368	1660.97083	-1198.81982	1404.16992	1661.36414	-1227.45581	952.66107	1663.54932	-1244.66663	506.76166	1667.51660	
199	0.990	-575.95404	2755.40381	1664.46436	-604.79327	2306.24536	1662.40576	-637.29651	1851.87109	1662.07300	-660.69220	1349.38501	1662.45496	-690.04034	902.69281	1662.67383	-713.74438	454.70413	1664.10376	-1113.57190	2807.71191	1664.59729	-1140.80359	2356.10913	1663.20923	-1171.42017	1905.90283	1660.98596	-1198.81995	1404.12378	1661.38037	-1227.45618	952.69751	1663.54272	-1244.68079	506.78055	1667.53076	
200	0.995	-575.95715	2755.39917	1664.48047	-604.77527	2306.24658	1662.40991	-637.24518	1851.87122	1662.06226	-660.69153	1349.38281	1662.46094	-690.06305	902.69751	1662.66553	-713.74292	454.68024	1664.10657	-1113.56812	2807.71094	1664.60291	-1140.81580	2356.11279	1663.20911	-1171.44507	1905.88757	1660.97070	-1198.81738	1404.15601	1661.35657	-1227.45276	952.69604	1663.56763	-1244.66724	506.74405	1667.52612	
201	1.000	-575.95636	2755.41724	1664.47461	-604.81616	2306.24487	1662.41943	-637.30786	1851.90027	1662.07959	-660.69757	1349.38416	1662.47070	-690.06042	902.71460	1662.65112	-713.74463	454.71222	1664.11499	-1113.54895	2807.71948	1664.60010	-1140.83752	2356.11475	1663.20483	-1171.43872	1905.88916	1660.97717	-1198.83020	1404.14417	1661.37244	-1227.44958	952.69061	1663.55688	-1244.69458	506.77618	1667.52136	
202	1.005	-575.96027	2755.40210	1664.48621	-604.79602	2306.23950	1662.41492	-637.28284	1851.87524	1662.05688	-660.70966	1349.37354	1662.45654	-690.04272	902.69684	1662.66858	-713.72913	454.67169	1664.11755	-1113.54150	2807.73047	1664.60425	-1140.80762	2356.11768	1663.20898	-1171.42542	1905.88513	1660.99194	-1198.81128	1404.14111	1661.37683	-1227.44043	952.70001	1663.57166	-1244.67908	506.75238	1667.52905	
203	1.010	-575.96320	2755.41748	1664.47083	-604.81750	2306.26392	1662.41711	-637.25262	1851.85425	1662.07922	-660.68524	1349.37952	1662.44727	-690.07349	902.66351	1662.64832	-713.73242	454.69324	1664.09656	-1113.56982	2807.70068	1664.60388	-1140.81213	2356.10181	1663.20032	-1171.41272	1905.89526	1660.95740	-1198.82483	1404.14832	1661.35425	-1227.46826	952.68463	1663.57373	-1244.66663	506.74786	1667.53625	
204	1.015	-575.95056	2755.41016	1664.48193	-604.80432	2306.23877	1662.39270	-637.29919	1851.85974	1662.06519	-660.70728	1349.39197	1662.46411	-690.04956	902.70502	1662.65918	-713.74207	454.67126	1664.09839	-1113.54395	2807.74829	1664.60669	-1140.80469	2356.12061	1663.19873	-1171.43726	1905.88452	1660.97498	-1198.81140	1404.17908	1661.36865	-1227.45972	952.68280	1663.56567	-1244.67358	506.76392	1667.53137	
205	1.020	-575.96344	2755.42139	1664.47852	-604.81342	2306.23218	1662.41406	-637.26050	1851.85449	1662.05786	-660.67877	1349.37097	1662.45325	-690.05652	902.67242	1662.65576	-713.73608	454.67889	1664.10510	-1113.52344	2807.72998	1664.61890	-1140.78357	2356.11328	1663.20129	-1171.42371	1905.89258	1660.98206	-1198.83630	1404.14880	1661.35645	-1227.45215	952.69336	1663.54529	-1244.66638	506.75027	1667.52124	
206	1.025	-575.96399	2755.42236	1664.47485	-604.79761	2306.24854	1662.41211	-637.24500	1851.87659	1662.07458	-660.70618	1349.38074	1662.45569	-690.04504	902.71014	1662.66797	-713.73199	454.68686	1664.11499	-1113.53760	2807.71826	1664.60522	-1140.79810	2356.11133	1663.20874	-1171.43140	1905.89661	1660.96936	-1198.82007	1404.15613	1661.36377	-1227.46301	952.70288	1663.55994	-1244.66675	506.74295	1667.53271	
207	1.030	-575.94098	2755.38989	1664.46240	-604.79895	2306.25903	1662.39563	-637.27283	1851.86157	1662.05725	-660.69159	1349.37927	1662.45764	-690.05096	902.69598	1662.68054	-713.73743	454.68494	1664.11853	-1113.52893	2807.72729	1664.60889	-1140.81519	2356.09448	1663.19897	-1171.44116	1905.89844	1660.97742	-1198.83533	1404.16504	1661.36060	-1227.45825	952.68604	1663.55347	-1244.68701	506.77032	1667.53955	
208	1.035	-575.95020	2755.40869	1664.47058	-604.80145	2306.22388	1662.41125	-637.25378	1851.86328	1662.07068	-660.70514	1349.38550	1662.45361	-690.05505	902.67871	1662.66565	-713.75702	454.69318	1664.11646	-1113.52673	2807.73682	1664.62109	-1140.80908	2356.10596	1663.19312	-1171.41602	1905.92419	1660.97888	-1198.84338	1404.16479	1661.36609	-1227.46704	952.69238	1663.56384	-1244.69312	506.75607	1667.53442	
209	1.040	-575.94727	2755.41699	1664.46973	-604.82727	2306.25073	1662.40735	-637.28601	1851.89136	1662.06921	-660.71045	1349.38464	1662.46240	-690.04108	902.67957	1662.64136	-713.73706	454.69763	1664.10547	-1113.51599	2807.73096	1664.60132	-1140.80920	2356.09961	1663.19116	-1171.43823	1905.90942	1660.96228	-1198.82507	1404.17468	1661.35608	-1227.45825	952.68512	1663.55200	-1244.68433	506.76175	1667.53467	
210	1.045	-575.94995	2755.42017	1664.46033	-604.80261	2306.24414	1662.41406	-637.24933	1851.85620	1662.06396	-660.72467	1349.36145	1662.45667	-690.07159	902.68134	1662.65283	-713.71271	454.67056	1664.11230	-1113.54236	2807.72217	1664.61047	-1140.79785	2356.12793	1663.19092	-1171.42053	1905.88489	1660.98035	-1198.81909	1404.13074	1661.37976	-1227.46350	952.70453	1663.54285	-1244.68726	506.77856	1667.53564	
211	1.050	-575.95697	2755.41162	1664.46497	-604.82983	2306.24390	1662.41895	-637.28021	1851.86890	1662.06860	-660.68732	1349.38660	1662.45349	-690.04626	902.70398	1662.66284	-713.72253	454.67337	1664.10303	-1113.55298	2807.73706	1664.60547	-1140.82544	2356.11987	1663.19409	-1171.44446	1905.89783	1660.96997	-1198.82629	1404.16870	1661.36316	-1227.46204	952.69830	1663.54443	-1244.67725	506.75803	1667.52527	
212	1.055	-575.94781	2755.41626	1664.47375	-604.82623	2306.23901	1662.41089	-637.25189	1851.86279	1662.05701	-660.68787	1349.35840	1662.47583	-690.03992	902.68793	1662.66980	-713.74109	454.68668	1664.10291	-1113.55627	2807.72046	1664.60974	-1140.76721	2356.10181	1663.20276	-1171.43274	1905.89233	1660.97717	-1198.82690	1404.15027	1661.38269	-1227.47314	952.70502	1663.54504	-1244.66772	506.74860	1667.52576	
213	1.060	-575.94714	2755.40674	1664.48389	-604.81519	2306.24829	1662.41382	-637.27606	1851.90515	1662.07874	-660.68225	1349.38098	1662.45923	-690.05695	902.69092	1662.65784	-713.73444	454.69727	1664.10803	-1113.54614	2807.72461	1664.61450	-1140.81226	2356.10474	1663.21472	-1171.44409	1905.89160	1660.99683	-1198.83472	1404.15674	1661.38000	-1227.45581	952.68207	1663.55798	-1244.68542	506.75818	1667.53198	
214	1.065	-575.95428	2755.41016	1664.48511	-604.82428	2306.24927	1662.41211	-637.24188	1851.83020	1662.06323	-660.70691	1349.39148	1662.45874	-690.05994	902.71094	1662.65796	-713.72577	454.69583	1664.10046	-1113.56067	2807.72412	1664.59534	-1140.78845	2356.10889	1663.19702	-1171.44067	1905.90295	1660.99585	-1198.81396	1404.17651	1661.36902	-1227.47058	952.68689	1663.55029	-1244.69910	506.76328	1667.53137	
215	1.070	-575.95178	2755.41846	1664.46716	-604.80621	2306.25098	1662.39990	-637.28741	1851.86804	1662.05603	-660.68988	1349.37256	1662.44836	-690.03137	902.69788	1662.64258	-713.74054	454.67725	1664.09497	-1113.53455	2807.71216	1664.59277	-1140.81946	2356.11841	1663.18835	-1171.45105	1905.89673	1660.96863	-1198.82422	1404.18262	1661.37048	-1227.47046	952.68634	1663.54211	-1244.68213	506.75684	1667.51758	
